<?xml version="1.0" encoding="iso-8859-1"?>
<!-- Generator: Adobe Illustrator 17.0.2, SVG Export Plug-In . SVG Version: 6.00 Build 0)  -->
<!DOCTYPE svg PUBLIC "-//W3C//DTD SVG 1.1//EN" "http://www.w3.org/Graphics/SVG/1.1/DTD/svg11.dtd">
<svg version="1.1" id="Capa_1" xmlns="http://www.w3.org/2000/svg" xmlns:xlink="http://www.w3.org/1999/xlink" x="0px" y="0px"
	 width="64px" height="64px" viewBox="0 0 64 64" style="enable-background:new 0 0 64 64;" xml:space="preserve">
<g>
	<path d="M4.896,29.992h2.793v4.487c0,1.436,1.165,2.6,2.601,2.6c0.451,0,0.867-0.125,1.236-0.326v1.26
		c0,1.436,1.165,2.601,2.602,2.601c1.435,0,2.6-1.165,2.6-2.601v-8.021h3.003l2.651-2.803v-1.655h-5.654v-8.021
		c0-1.436-1.165-2.601-2.6-2.601c-1.437,0-2.602,1.165-2.602,2.601v1.26c-0.369-0.202-0.785-0.326-1.236-0.326
		c-1.436,0-2.601,1.164-2.601,2.6v4.487H4.896c-1.231,0-2.229,0.998-2.229,2.229S3.664,29.992,4.896,29.992z"/>
	<path d="M57.762,25.534h-3.449v-4.487c0-1.436-1.164-2.6-2.601-2.6c-0.45,0-0.868,0.125-1.237,0.327v-1.261
		c0-1.436-1.165-2.601-2.601-2.601c-1.437,0-2.601,1.165-2.601,2.601v8.021H44.34v4.458h0.934v8.021
		c0,1.436,1.164,2.601,2.601,2.601c1.436,0,2.601-1.165,2.601-2.601v-1.261c0.369,0.202,0.787,0.327,1.237,0.327
		c1.436,0,2.601-1.164,2.601-2.6v-4.487h3.449c1.232,0,2.228-0.998,2.228-2.229S58.993,25.534,57.762,25.534z"/>
	<path d="M26.377,16.992c-1.104,0-2,0.896-2,2v8.123l-3.207,3.391c-1.479,1.563-1.636,4.143-0.357,5.873l2.435,3.299
		c0.846,1.144,1.587,3.104,1.587,4.194c0,1.861,1.794,3.375,4,3.375h7.875c2.206,0,4-1.794,4-4v-0.875
		c0-1.471,0.915-3.805,1.462-5.201c0.266-0.679,0.438-1.358,0.512-2.016c0.088-0.771-0.062-1.699-0.365-2.616
		c0.005-0.056,0.017-0.11,0.017-0.168V22.56c0-1.104-0.896-2-2-2s-2,0.896-2,2v5.51c-0.722-0.265-1.502-0.422-2.345-0.447
		c-1.644-0.047-3.275,0.322-4.814,1.108c-0.865,0.442-1.436,1.202-1.61,2.139c-0.206,1.117,0.177,2.346,1.024,3.288
		c0.126,0.14,0.251,0.283,0.372,0.427c-0.014-0.008-0.028-0.017-0.043-0.025c-1.308-0.792-2.865-1.992-3.744-3.549l2.591-3.348
		c0.338-0.437,1.06-0.791,1.612-0.791h4.582c1.104,0,2-0.896,2-2c0-0.667-0.33-1.255-0.833-1.618v-3.007c0-1.104-0.896-2-2-2
		c-1.104,0-2,0.896-2,2v2.625h-0.346v-2.625c0-1.104-0.896-2-2-2c-1.104,0-2,0.896-2,2v2.735c-0.14,0.045-0.271,0.105-0.398,0.179
		c-0.002,0.001-0.005,0.001-0.007,0.002v-4.171C28.377,17.887,27.481,16.992,26.377,16.992z"/>
	<path d="M41.209,55.992v-4c0-1.657-1.343-3-3-3h-11.75c-1.657,0-3,1.343-3,3v4c0,1.657,1.343,3,3,3h11.75
		C39.866,58.992,41.209,57.648,41.209,55.992z"/>
</g>
</svg>
